<svg width="3098" height="1371" viewBox="0 0 3098 1371" fill="none" xmlns="http://www.w3.org/2000/svg">
    <g id="bg-hero">
        <g id="bg-hero_2">
            <g id="Vector" filter="url(#filter0_f)">
                <path
                    d="M2168.86 1012.69C1178.72 991.177 873.776 607.025 529.424 617.96C96.551 631.706 177.206 992.033 529.424 1129.33C944.594 1291.16 2839.85 1027.27 2168.86 1012.69Z"
                    fill="url(#paint0_linear)" fill-opacity="0.2" />
            </g>
            <g id="Vector_2" filter="url(#filter1_f)">
                <path
                    d="M1857.05 669.469C2159 763.442 2490.13 986.882 2603.58 978.467C2806.68 963.402 2670.88 446.49 2422.8 299.613C2190.02 161.79 786.041 241.772 1194.03 532.66C1411.09 687.418 1600.09 589.493 1857.05 669.469Z"
                    fill="url(#paint1_linear)" fill-opacity="0.2" />
            </g>
            <path id="bghero-line3"
                d="M0.999997 1279.5C345.377 1011.53 1004 840.243 1605.58 762.935C2251.29 679.956 2637.63 647.784 3096.09 114"
                stroke="url(#paint2_linear)" stroke-linecap="round" />
            <path id="bghero-line2"
                d="M0.999999 847.953C358.291 546.623 1061.03 400.263 1689.52 546.623C2173.88 659.419 2794.76 864.501 3097.16 675.094"
                stroke="url(#paint3_linear)" stroke-linecap="round" />
            <path id="bghero-line1"
                d="M1 225.923C743.562 225.922 1170.8 309.864 1652.93 649.936C1893.2 819.41 2690.37 1140.67 3096.09 1085.79"
                stroke="url(#paint4_linear)" stroke-linecap="round" />
            <path id="square3"
                d="M270.901 1118.27L246.727 1109.17C244.502 1108.34 242.02 1109.46 241.183 1111.69L232.088 1135.86C231.251 1138.09 232.376 1140.57 234.601 1141.41L258.776 1150.5C261.001 1151.34 263.483 1150.21 264.32 1147.99L273.415 1123.81C274.252 1121.59 273.127 1119.11 270.901 1118.27Z"
                fill="url(#paint5_linear)" />
            <path id="square2"
                d="M2743.65 749.633L2726.19 730.594C2724.59 728.842 2721.86 728.723 2720.11 730.33L2701.07 747.784C2699.32 749.39 2699.2 752.113 2700.81 753.866L2718.26 772.904C2719.87 774.657 2722.59 774.775 2724.35 773.168L2743.38 755.715C2745.14 754.108 2745.25 751.385 2743.65 749.633Z"
                fill="url(#paint6_linear)" />
            <path id="square1"
                d="M769.08 275.982L754.411 254.724C753.06 252.767 750.38 252.276 748.423 253.626L727.164 268.295C725.208 269.645 724.716 272.326 726.066 274.283L740.735 295.541C742.086 297.498 744.767 297.99 746.723 296.639L767.982 281.97C769.938 280.62 770.43 277.939 769.08 275.982Z"
                fill="url(#paint7_linear)" />
        </g>
    </g>
    <defs>
        <filter id="filter0_f" x="45.2422" y="428.731" width="2455.02" height="941.917" filterUnits="userSpaceOnUse"
            color-interpolation-filters="sRGB">
            <feFlood flood-opacity="0" result="BackgroundImageFix" />
            <feBlend mode="normal" in="SourceGraphic" in2="BackgroundImageFix" result="shape" />
            <feGaussianBlur stdDeviation="94.5" result="effect1_foregroundBlur" />
        </filter>
        <filter id="filter1_f" x="887.144" y="0.983765" width="2047.98" height="1210.71" filterUnits="userSpaceOnUse"
            color-interpolation-filters="sRGB">
            <feFlood flood-opacity="0" result="BackgroundImageFix" />
            <feBlend mode="normal" in="SourceGraphic" in2="BackgroundImageFix" result="shape" />
            <feGaussianBlur stdDeviation="116.5" result="effect1_foregroundBlur" />
        </filter>
        <linearGradient id="paint0_linear" x1="2311.26" y1="617.731" x2="2026.08" y2="1668.13"
            gradientUnits="userSpaceOnUse">
            <stop stop-color="#2DC7ED" />
            <stop offset="1" stop-color="#538BF0" stop-opacity="0" />
        </linearGradient>
        <linearGradient id="paint1_linear" x1="1281.75" y1="1229.9" x2="1823.36" y2="-212.474"
            gradientUnits="userSpaceOnUse">
            <stop stop-color="#2DC7ED" />
            <stop offset="1" stop-color="#538BF0" stop-opacity="0" />
        </linearGradient>
        <linearGradient id="paint2_linear" x1="4378.89" y1="-353.06" x2="-362.129" y2="3628.84"
            gradientUnits="userSpaceOnUse">
            <stop stop-color="#2DC7ED" />
            <stop offset="0.903319" stop-color="#2FC3ED" stop-opacity="0.33" />
            <stop offset="1" stop-color="#2DC7ED" />
            <stop offset="1" stop-color="#2DC7ED" />
        </linearGradient>
        <linearGradient id="paint3_linear" x1="6504.97" y1="-387.933" x2="-867.584" y2="784.619"
            gradientUnits="userSpaceOnUse">
            <stop stop-color="#2DC7ED" stop-opacity="0" />
            <stop offset="1" stop-color="#2DC7ED" />
        </linearGradient>
        <linearGradient id="paint4_linear" x1="4628.56" y1="1375.28" x2="-1398.53" y2="258.166"
            gradientUnits="userSpaceOnUse">
            <stop stop-color="#2DC7ED" />
            <stop offset="0.491175" stop-color="#30C2ED" stop-opacity="0.916667" />
            <stop offset="1" stop-color="#538BF0" stop-opacity="0" />
        </linearGradient>
        <linearGradient id="paint5_linear" x1="274.93" y1="1119.78" x2="230.572" y2="1139.89"
            gradientUnits="userSpaceOnUse">
            <stop stop-color="#2DC7ED" />
            <stop offset="1" stop-color="#538BF0" stop-opacity="0" />
        </linearGradient>
        <linearGradient id="paint6_linear" x1="2746.56" y1="752.806" x2="2697.9" y2="750.693"
            gradientUnits="userSpaceOnUse">
            <stop stop-color="#2DC7ED" />
            <stop offset="1" stop-color="#538BF0" stop-opacity="0" />
        </linearGradient>
        <linearGradient id="paint7_linear" x1="771.525" y1="279.525" x2="723.621" y2="270.74"
            gradientUnits="userSpaceOnUse">
            <stop stop-color="#2DC7ED" />
            <stop offset="1" stop-color="#538BF0" stop-opacity="0" />
        </linearGradient>
    </defs>
</svg>