<svg width="1440" height="900" viewBox="0 0 1440 1014" fill="none" xmlns="http://www.w3.org/2000/svg">
<g opacity="0.33" filter="url(#filter0_f)">
<path d="M1034.12 694.668C562.177 678.073 416.83 381.742 252.697 390.177C46.3703 400.78 84.814 678.733 252.697 784.639C450.585 909.473 1353.95 705.914 1034.12 694.668Z" fill="url(#paint0_linear)"/>
</g>
<g opacity="0.33" filter="url(#filter1_f)">
<path d="M805.094 492.637C977.638 548.664 1166.86 681.879 1231.69 676.862C1347.75 667.88 1270.15 359.696 1128.38 272.128C995.365 189.958 193.081 237.644 426.223 411.071C550.257 503.338 658.259 444.955 805.094 492.637Z" fill="url(#paint1_linear)"/>
</g>
<defs>
<filter id="filter0_f" x="-77" y="201" width="1368" height="813" filterUnits="userSpaceOnUse" color-interpolation-filters="sRGB">
<feFlood flood-opacity="0" result="BackgroundImageFix"/>
<feBlend mode="normal" in="SourceGraphic" in2="BackgroundImageFix" result="shape"/>
<feGaussianBlur stdDeviation="94.5" result="effect1_foregroundBlur"/>
</filter>
<filter id="filter1_f" x="151" y="0" width="1370" height="910" filterUnits="userSpaceOnUse" color-interpolation-filters="sRGB">
<feFlood flood-opacity="0" result="BackgroundImageFix"/>
<feBlend mode="normal" in="SourceGraphic" in2="BackgroundImageFix" result="shape"/>
<feGaussianBlur stdDeviation="116.5" result="effect1_foregroundBlur"/>
</filter>
<linearGradient id="paint0_linear" x1="607" y1="390" x2="607" y2="825" gradientUnits="userSpaceOnUse">
<stop stop-color="#15CDCB"/>
<stop offset="1" stop-color="#5280E2"/>
</linearGradient>
<linearGradient id="paint1_linear" x1="836" y1="233" x2="836" y2="677" gradientUnits="userSpaceOnUse">
<stop stop-color="#15CDCB"/>
<stop offset="1" stop-color="#5280E2"/>
</linearGradient>
</defs>
</svg>
