<svg width="99" height="47" viewBox="0 0 99 47" fill="none" xmlns="http://www.w3.org/2000/svg">
<line x1="2" x2="2" y2="46" stroke="#5280E2" stroke-width="4"/>
<path d="M16.744 16.984L20.824 5.848H23.152L17.992 19H15.448L10.288 5.848H12.64L16.744 16.984ZM28.5891 3.712C28.1731 3.712 27.8211 3.568 27.5331 3.28C27.2451 2.992 27.1011 2.64 27.1011 2.224C27.1011 1.808 27.2451 1.456 27.5331 1.168C27.8211 0.879999 28.1731 0.735999 28.5891 0.735999C28.9891 0.735999 29.3251 0.879999 29.5971 1.168C29.8851 1.456 30.0291 1.808 30.0291 2.224C30.0291 2.64 29.8851 2.992 29.5971 3.28C29.3251 3.568 28.9891 3.712 28.5891 3.712ZM29.6451 5.848V19H27.4611V5.848H29.6451ZM38.1914 7.648V15.4C38.1914 16.04 38.3274 16.496 38.5994 16.768C38.8714 17.024 39.3434 17.152 40.0154 17.152H41.6234V19H39.6554C38.4394 19 37.5274 18.72 36.9194 18.16C36.3114 17.6 36.0074 16.68 36.0074 15.4V7.648H34.3034V5.848H36.0074V2.536H38.1914V5.848H41.6234V7.648H38.1914ZM52.1656 19.216C50.9336 19.216 49.8136 18.936 48.8056 18.376C47.8136 17.816 47.0296 17.024 46.4536 16C45.8936 14.96 45.6136 13.76 45.6136 12.4C45.6136 11.056 45.9016 9.872 46.4776 8.848C47.0696 7.808 47.8696 7.016 48.8776 6.472C49.8856 5.912 51.0136 5.632 52.2616 5.632C53.5096 5.632 54.6376 5.912 55.6456 6.472C56.6536 7.016 57.4456 7.8 58.0216 8.824C58.6136 9.848 58.9096 11.04 58.9096 12.4C58.9096 13.76 58.6056 14.96 57.9976 16C57.4056 17.024 56.5976 17.816 55.5736 18.376C54.5496 18.936 53.4136 19.216 52.1656 19.216ZM52.1656 17.296C52.9496 17.296 53.6856 17.112 54.3736 16.744C55.0616 16.376 55.6136 15.824 56.0296 15.088C56.4616 14.352 56.6776 13.456 56.6776 12.4C56.6776 11.344 56.4696 10.448 56.0536 9.712C55.6376 8.976 55.0936 8.432 54.4216 8.08C53.7496 7.712 53.0216 7.528 52.2376 7.528C51.4376 7.528 50.7016 7.712 50.0296 8.08C49.3736 8.432 48.8456 8.976 48.4456 9.712C48.0456 10.448 47.8456 11.344 47.8456 12.4C47.8456 13.472 48.0376 14.376 48.4216 15.112C48.8216 15.848 49.3496 16.4 50.0056 16.768C50.6616 17.12 51.3816 17.296 52.1656 17.296ZM54.6136 1.96L49.5016 4.696V3.064L54.6136 0.0639992V1.96ZM66.1251 7.984C66.5091 7.232 67.0531 6.648 67.7571 6.232C68.4771 5.816 69.3491 5.608 70.3731 5.608V7.864H69.7971C67.3491 7.864 66.1251 9.192 66.1251 11.848V19H63.9411V5.848H66.1251V7.984ZM76.1822 3.712C75.7662 3.712 75.4142 3.568 75.1262 3.28C74.8382 2.992 74.6942 2.64 74.6942 2.224C74.6942 1.808 74.8382 1.456 75.1262 1.168C75.4142 0.879999 75.7662 0.735999 76.1822 0.735999C76.5822 0.735999 76.9182 0.879999 77.1902 1.168C77.4782 1.456 77.6222 1.808 77.6222 2.224C77.6222 2.64 77.4782 2.992 77.1902 3.28C76.9182 3.568 76.5822 3.712 76.1822 3.712ZM77.2382 5.848V19H75.0542V5.848H77.2382ZM82.3045 12.376C82.3045 11.032 82.5765 9.856 83.1205 8.848C83.6645 7.824 84.4085 7.032 85.3525 6.472C86.3125 5.912 87.3765 5.632 88.5445 5.632C89.6965 5.632 90.6965 5.88 91.5445 6.376C92.3925 6.872 93.0245 7.496 93.4405 8.248V5.848H95.6485V19H93.4405V16.552C93.0085 17.32 92.3605 17.96 91.4965 18.472C90.6485 18.968 89.6565 19.216 88.5205 19.216C87.3525 19.216 86.2965 18.928 85.3525 18.352C84.4085 17.776 83.6645 16.968 83.1205 15.928C82.5765 14.888 82.3045 13.704 82.3045 12.376ZM93.4405 12.4C93.4405 11.408 93.2405 10.544 92.8405 9.808C92.4405 9.072 91.8965 8.512 91.2085 8.128C90.5365 7.728 89.7925 7.528 88.9765 7.528C88.1605 7.528 87.4165 7.72 86.7445 8.104C86.0725 8.488 85.5365 9.048 85.1365 9.784C84.7365 10.52 84.5365 11.384 84.5365 12.376C84.5365 13.384 84.7365 14.264 85.1365 15.016C85.5365 15.752 86.0725 16.32 86.7445 16.72C87.4165 17.104 88.1605 17.296 88.9765 17.296C89.7925 17.296 90.5365 17.104 91.2085 16.72C91.8965 16.32 92.4405 15.752 92.8405 15.016C93.2405 14.264 93.4405 13.392 93.4405 12.4ZM14.032 22.24V40H11.848V22.24H14.032ZM23.9703 40.216C22.7383 40.216 21.6183 39.936 20.6103 39.376C19.6183 38.816 18.8343 38.024 18.2583 37C17.6983 35.96 17.4183 34.76 17.4183 33.4C17.4183 32.056 17.7063 30.872 18.2823 29.848C18.8743 28.808 19.6743 28.016 20.6823 27.472C21.6903 26.912 22.8183 26.632 24.0663 26.632C25.3143 26.632 26.4423 26.912 27.4503 27.472C28.4583 28.016 29.2503 28.8 29.8263 29.824C30.4183 30.848 30.7143 32.04 30.7143 33.4C30.7143 34.76 30.4103 35.96 29.8023 37C29.2103 38.024 28.4023 38.816 27.3783 39.376C26.3543 39.936 25.2183 40.216 23.9703 40.216ZM23.9703 38.296C24.7543 38.296 25.4903 38.112 26.1783 37.744C26.8663 37.376 27.4183 36.824 27.8343 36.088C28.2663 35.352 28.4823 34.456 28.4823 33.4C28.4823 32.344 28.2743 31.448 27.8583 30.712C27.4423 29.976 26.8983 29.432 26.2263 29.08C25.5543 28.712 24.8263 28.528 24.0423 28.528C23.2423 28.528 22.5063 28.712 21.8343 29.08C21.1783 29.432 20.6503 29.976 20.2503 30.712C19.8503 31.448 19.6503 32.344 19.6503 33.4C19.6503 34.472 19.8423 35.376 20.2263 36.112C20.6263 36.848 21.1543 37.4 21.8103 37.768C22.4663 38.12 23.1863 38.296 23.9703 38.296ZM36.2498 29.272C36.6818 28.52 37.3218 27.896 38.1698 27.4C39.0338 26.888 40.0338 26.632 41.1698 26.632C42.3378 26.632 43.3938 26.912 44.3378 27.472C45.2978 28.032 46.0498 28.824 46.5938 29.848C47.1378 30.856 47.4098 32.032 47.4098 33.376C47.4098 34.704 47.1378 35.888 46.5938 36.928C46.0498 37.968 45.2978 38.776 44.3378 39.352C43.3938 39.928 42.3378 40.216 41.1698 40.216C40.0498 40.216 39.0578 39.968 38.1938 39.472C37.3458 38.96 36.6978 38.328 36.2498 37.576V46.24H34.0658V26.848H36.2498V29.272ZM45.1778 33.376C45.1778 32.384 44.9778 31.52 44.5778 30.784C44.1778 30.048 43.6338 29.488 42.9458 29.104C42.2738 28.72 41.5298 28.528 40.7138 28.528C39.9138 28.528 39.1698 28.728 38.4818 29.128C37.8098 29.512 37.2658 30.08 36.8498 30.832C36.4498 31.568 36.2498 32.424 36.2498 33.4C36.2498 34.392 36.4498 35.264 36.8498 36.016C37.2658 36.752 37.8098 37.32 38.4818 37.72C39.1698 38.104 39.9138 38.296 40.7138 38.296C41.5298 38.296 42.2738 38.104 42.9458 37.72C43.6338 37.32 44.1778 36.752 44.5778 36.016C44.9778 35.264 45.1778 34.384 45.1778 33.376ZM62.7646 32.92C62.7646 33.336 62.7406 33.776 62.6926 34.24H52.1806C52.2606 35.536 52.7006 36.552 53.5006 37.288C54.3166 38.008 55.3006 38.368 56.4526 38.368C57.3966 38.368 58.1806 38.152 58.8046 37.72C59.4446 37.272 59.8926 36.68 60.1486 35.944H62.5006C62.1486 37.208 61.4446 38.24 60.3886 39.04C59.3326 39.824 58.0206 40.216 56.4526 40.216C55.2046 40.216 54.0846 39.936 53.0926 39.376C52.1166 38.816 51.3486 38.024 50.7886 37C50.2286 35.96 49.9486 34.76 49.9486 33.4C49.9486 32.04 50.2206 30.848 50.7646 29.824C51.3086 28.8 52.0686 28.016 53.0446 27.472C54.0366 26.912 55.1726 26.632 56.4526 26.632C57.7006 26.632 58.8046 26.904 59.7646 27.448C60.7246 27.992 61.4606 28.744 61.9726 29.704C62.5006 30.648 62.7646 31.72 62.7646 32.92ZM60.5086 32.464C60.5086 31.632 60.3246 30.92 59.9566 30.328C59.5886 29.72 59.0846 29.264 58.4446 28.96C57.8206 28.64 57.1246 28.48 56.3566 28.48C55.2526 28.48 54.3086 28.832 53.5246 29.536C52.7566 30.24 52.3166 31.216 52.2046 32.464H60.5086ZM70.7834 40.216C69.7754 40.216 68.8714 40.048 68.0714 39.712C67.2714 39.36 66.6394 38.88 66.1754 38.272C65.7114 37.648 65.4554 36.936 65.4074 36.136H67.6634C67.7274 36.792 68.0314 37.328 68.5754 37.744C69.1354 38.16 69.8634 38.368 70.7594 38.368C71.5914 38.368 72.2474 38.184 72.7274 37.816C73.2074 37.448 73.4474 36.984 73.4474 36.424C73.4474 35.848 73.1914 35.424 72.6794 35.152C72.1674 34.864 71.3754 34.584 70.3034 34.312C69.3274 34.056 68.5274 33.8 67.9034 33.544C67.2954 33.272 66.7674 32.88 66.3194 32.368C65.8874 31.84 65.6714 31.152 65.6714 30.304C65.6714 29.632 65.8714 29.016 66.2714 28.456C66.6714 27.896 67.2394 27.456 67.9754 27.136C68.7114 26.8 69.5514 26.632 70.4954 26.632C71.9514 26.632 73.1274 27 74.0234 27.736C74.9194 28.472 75.3994 29.48 75.4634 30.76H73.2794C73.2314 30.072 72.9514 29.52 72.4394 29.104C71.9434 28.688 71.2714 28.48 70.4234 28.48C69.6394 28.48 69.0154 28.648 68.5514 28.984C68.0874 29.32 67.8554 29.76 67.8554 30.304C67.8554 30.736 67.9914 31.096 68.2634 31.384C68.5514 31.656 68.9034 31.88 69.3194 32.056C69.7514 32.216 70.3434 32.4 71.0954 32.608C72.0394 32.864 72.8074 33.12 73.3994 33.376C73.9914 33.616 74.4954 33.984 74.9114 34.48C75.3434 34.976 75.5674 35.624 75.5834 36.424C75.5834 37.144 75.3834 37.792 74.9834 38.368C74.5834 38.944 74.0154 39.4 73.2794 39.736C72.5594 40.056 71.7274 40.216 70.7834 40.216Z" fill="white"/>
<line x1="85.107" y1="26.2588" x2="80.9659" y2="41.7136" stroke="#5280E2" stroke-width="2"/>
<line x1="88.4442" y1="41.735" x2="96.3419" y2="33.8373" stroke="#5280E2" stroke-width="2"/>
<line x1="88.7777" y1="27.0203" x2="96.6754" y2="34.918" stroke="#5280E2" stroke-width="2"/>
</svg>
